name p12_grf_mean_speed_1.2
datacolumns 13
datarows 40
range 0.0000000000 0.3900000000
endheader
time	grf_x_l_mean	grf_x_l_var	grf_y_l_mean	grf_y_l_var	grf_z_l_mean	grf_z_l_var	grf_x_r_mean	grf_x_r_var	grf_y_r_mean	grf_y_r_var	grf_z_r_mean	grf_z_r_var
0.0000000000	65.9397945731	1.0000000000	572.7611515448	1.0000000000	0.0000000000	0.0000000000	7.3890778924	1.0000000000	10.7818481141	1.0000000000	0.0000000000	0.0000000000
0.0100000000	75.0520755107	1.0000000000	567.0415868578	1.0000000000	0.0000000000	0.0000000000	13.4655426593	1.0000000000	34.0511870617	1.0000000000	0.0000000000	0.0000000000
0.0200000000	84.6150374412	1.0000000000	551.9349125588	1.0000000000	0.0000000000	0.0000000000	19.3133056056	1.0000000000	69.7046922284	1.0000000000	0.0000000000	0.0000000000
0.0300000000	93.7195190166	1.0000000000	526.8601433366	1.0000000000	0.0000000000	0.0000000000	20.1387165951	1.0000000000	114.7977047546	1.0000000000	0.0000000000	0.0000000000
0.0400000000	100.3063303275	1.0000000000	491.1458414336	1.0000000000	0.0000000000	0.0000000000	12.6246238385	1.0000000000	163.5588964377	1.0000000000	0.0000000000	0.0000000000
0.0500000000	103.2722527334	1.0000000000	444.8716954621	1.0000000000	0.0000000000	0.0000000000	0.1678754970	1.0000000000	210.0309327308	1.0000000000	0.0000000000	0.0000000000
0.0600000000	102.1809577792	1.0000000000	389.5450222152	1.0000000000	0.0000000000	0.0000000000	-12.7322537430	1.0000000000	249.7049219831	1.0000000000	0.0000000000	0.0000000000
0.0700000000	95.2332302558	1.0000000000	327.4857027995	1.0000000000	0.0000000000	0.0000000000	-25.4200615940	1.0000000000	281.7513116452	1.0000000000	0.0000000000	0.0000000000
0.0800000000	82.0790826600	1.0000000000	262.3225714766	1.0000000000	0.0000000000	0.0000000000	-37.5989896532	1.0000000000	309.7069726871	1.0000000000	0.0000000000	0.0000000000
0.0900000000	64.9305611960	1.0000000000	199.3829104844	1.0000000000	0.0000000000	0.0000000000	-48.0624768041	1.0000000000	338.7132755721	1.0000000000	0.0000000000	0.0000000000
0.1000000000	45.8349039963	1.0000000000	143.5578908257	1.0000000000	0.0000000000	0.0000000000	-57.4195474257	1.0000000000	371.7615988947	1.0000000000	0.0000000000	0.0000000000
0.1100000000	27.6117612920	1.0000000000	97.1728954698	1.0000000000	0.0000000000	0.0000000000	-65.9140039038	1.0000000000	408.0781361341	1.0000000000	0.0000000000	0.0000000000
0.1200000000	13.7970918653	1.0000000000	61.0719429857	1.0000000000	0.0000000000	0.0000000000	-71.8259246109	1.0000000000	445.5650163466	1.0000000000	0.0000000000	0.0000000000
0.1300000000	4.7329365944	1.0000000000	35.2780353836	1.0000000000	0.0000000000	0.0000000000	-75.0047098770	1.0000000000	482.6440755962	1.0000000000	0.0000000000	0.0000000000
0.1400000000	-0.3942023352	1.0000000000	18.0830477753	1.0000000000	0.0000000000	0.0000000000	-76.5357118711	1.0000000000	516.9873036680	1.0000000000	0.0000000000	0.0000000000
0.1500000000	-1.8513084326	1.0000000000	7.1173435703	1.0000000000	0.0000000000	0.0000000000	-75.7465723733	1.0000000000	545.5795668273	1.0000000000	0.0000000000	0.0000000000
0.1600000000	-1.4758771667	1.0000000000	0.9772818845	1.0000000000	0.0000000000	0.0000000000	-72.8849403598	1.0000000000	566.7444752973	1.0000000000	0.0000000000	0.0000000000
0.1700000000	0.0000000000	1.0000000000	0.0000000000	1.0000000000	0.0000000000	0.0000000000	-69.2555465403	1.0000000000	580.3427538293	1.0000000000	0.0000000000	0.0000000000
0.1800000000	0.0000000000	1.0000000000	0.0000000000	1.0000000000	0.0000000000	0.0000000000	-65.0177265562	1.0000000000	586.2080992242	1.0000000000	0.0000000000	0.0000000000
0.1900000000	0.0000000000	1.0000000000	0.0000000000	1.0000000000	0.0000000000	0.0000000000	-60.2622758917	1.0000000000	584.0671845861	1.0000000000	0.0000000000	0.0000000000
0.2000000000	0.0000000000	1.0000000000	0.0000000000	1.0000000000	0.0000000000	0.0000000000	-55.7699420355	1.0000000000	574.3695784927	1.0000000000	0.0000000000	0.0000000000
0.2100000000	0.0000000000	1.0000000000	0.0000000000	1.0000000000	0.0000000000	0.0000000000	-51.3773208037	1.0000000000	558.3710635986	1.0000000000	0.0000000000	0.0000000000
0.2200000000	1.4948754692	1.0000000000	0.0802631064	1.0000000000	0.0000000000	0.0000000000	-46.6961040000	1.0000000000	537.9094527300	1.0000000000	0.0000000000	0.0000000000
0.2300000000	1.1815671331	1.0000000000	0.2158520635	1.0000000000	0.0000000000	0.0000000000	-42.1087645333	1.0000000000	514.9343596180	1.0000000000	0.0000000000	0.0000000000
0.2400000000	0.9840945735	1.0000000000	0.2655375420	1.0000000000	0.0000000000	0.0000000000	-37.3087240292	1.0000000000	491.1128805525	1.0000000000	0.0000000000	0.0000000000
0.2500000000	1.2647746867	1.0000000000	0.3275764673	1.0000000000	0.0000000000	0.0000000000	-32.0578938754	1.0000000000	467.7229835218	1.0000000000	0.0000000000	0.0000000000
0.2600000000	1.2037858102	1.0000000000	0.2880275773	1.0000000000	0.0000000000	0.0000000000	-26.9727287190	1.0000000000	445.7531801870	1.0000000000	0.0000000000	0.0000000000
0.2700000000	1.0069291797	1.0000000000	0.2214399568	1.0000000000	0.0000000000	0.0000000000	-22.2793367435	1.0000000000	425.8641413366	1.0000000000	0.0000000000	0.0000000000
0.2800000000	1.1868620352	1.0000000000	0.2276318918	1.0000000000	0.0000000000	0.0000000000	-17.8966453732	1.0000000000	408.4674965397	1.0000000000	0.0000000000	0.0000000000
0.2900000000	1.0763963730	1.0000000000	0.1940645238	1.0000000000	0.0000000000	0.0000000000	-14.1775999123	1.0000000000	393.7483071824	1.0000000000	0.0000000000	0.0000000000
0.3000000000	0.6717806684	1.0000000000	0.0714295985	1.0000000000	0.0000000000	0.0000000000	-11.0627340108	1.0000000000	381.6385499884	1.0000000000	0.0000000000	0.0000000000
0.3100000000	0.0000000000	1.0000000000	0.0000000000	1.0000000000	0.0000000000	0.0000000000	-8.3743844846	1.0000000000	372.2973763686	1.0000000000	0.0000000000	0.0000000000
0.3200000000	0.0000000000	1.0000000000	0.0000000000	1.0000000000	0.0000000000	0.0000000000	-6.2938393538	1.0000000000	365.9728913948	1.0000000000	0.0000000000	0.0000000000
0.3300000000	0.0000000000	1.0000000000	0.0000000000	1.0000000000	0.0000000000	0.0000000000	-4.3721011883	1.0000000000	362.4869097880	1.0000000000	0.0000000000	0.0000000000
0.3400000000	0.0000000000	1.0000000000	0.0000000000	1.0000000000	0.0000000000	0.0000000000	-2.0343682353	1.0000000000	361.6693179990	1.0000000000	0.0000000000	0.0000000000
0.3500000000	0.0000000000	1.0000000000	0.0000000000	1.0000000000	0.0000000000	0.0000000000	0.4730060731	1.0000000000	363.9318633224	1.0000000000	0.0000000000	0.0000000000
0.3600000000	0.0000000000	1.0000000000	0.0000000000	1.0000000000	0.0000000000	0.0000000000	3.3812167239	1.0000000000	369.4675717405	1.0000000000	0.0000000000	0.0000000000
0.3700000000	0.7009320193	1.0000000000	0.0022624045	1.0000000000	0.0000000000	0.0000000000	7.1694937612	1.0000000000	377.6697780087	1.0000000000	0.0000000000	0.0000000000
0.3800000000	0.6948694830	1.0000000000	0.0434165505	1.0000000000	0.0000000000	0.0000000000	11.4372373221	1.0000000000	388.0666600656	1.0000000000	0.0000000000	0.0000000000
0.3900000000	0.5275028113	1.0000000000	0.1100240641	1.0000000000	0.0000000000	0.0000000000	15.9301582204	1.0000000000	400.7910983319	1.0000000000	0.0000000000	0.0000000000
